<svg width="27" height="26" viewBox="0 0 27 26" fill="none" xmlns="http://www.w3.org/2000/svg">
<rect x="0.299072" width="25.9129" height="25.9129" rx="5" fill="#DFDFDF"/>
<path d="M14.7088 12.6617C14.0335 12.6617 13.3734 12.4424 12.8119 12.0314C12.2504 11.6205 11.8128 11.0365 11.5543 10.3532C11.2959 9.66984 11.2283 8.91794 11.36 8.19253C11.4918 7.46712 11.817 6.80079 12.2945 6.2778C12.772 5.75481 13.3804 5.39864 14.0427 5.25435C14.7051 5.11006 15.3916 5.18412 16.0155 5.46716C16.6394 5.7502 17.1726 6.22951 17.5478 6.84448C17.923 7.45945 18.1233 8.18247 18.1233 8.92209C18.1233 9.91389 17.7635 10.8651 17.1232 11.5664C16.4829 12.2677 15.6144 12.6617 14.7088 12.6617ZM14.7088 6.67833C14.3037 6.67833 13.9076 6.80993 13.5707 7.05647C13.2338 7.30302 12.9712 7.65345 12.8161 8.06344C12.6611 8.47343 12.6205 8.92458 12.6996 9.35982C12.7786 9.79507 12.9737 10.1949 13.2602 10.5087C13.5467 10.8225 13.9118 11.0362 14.3092 11.1227C14.7066 11.2093 15.1185 11.1649 15.4928 10.995C15.8672 10.8252 16.1871 10.5376 16.4122 10.1686C16.6373 9.79967 16.7575 9.36586 16.7575 8.92209C16.7575 8.32701 16.5416 7.7563 16.1575 7.33551C15.7733 6.91473 15.2522 6.67833 14.7088 6.67833Z" fill="black"/>
<path d="M21.3638 19.2061C21.1783 19.2034 21.0011 19.122 20.8699 18.9791C20.7388 18.8362 20.664 18.6432 20.6616 18.4411C20.6616 16.4524 19.6692 15.1265 14.8103 15.1265C9.95138 15.1265 8.959 16.4524 8.959 18.4411C8.959 18.644 8.88502 18.8386 8.75334 18.982C8.62166 19.1255 8.44307 19.2061 8.25684 19.2061C8.07062 19.2061 7.89202 19.1255 7.76034 18.982C7.62866 18.8386 7.55469 18.644 7.55469 18.4411C7.55469 13.5967 12.6383 13.5967 14.8103 13.5967C16.9823 13.5967 22.0659 13.5967 22.0659 18.4411C22.0635 18.6432 21.9887 18.8362 21.8576 18.9791C21.7264 19.122 21.5492 19.2034 21.3638 19.2061Z" fill="black"/>
<mask id="path-4-inside-1_2_468" fill="white">
<path d="M7.55462 10.3651V8.29211H6.5181V10.3651H4.44507V11.4017H6.5181V13.4747H7.55462V11.4017H9.62765V10.3651H7.55462Z"/>
</mask>
<path d="M7.55462 10.3651H4.55462V13.3651H7.55462V10.3651ZM7.55462 8.29211H10.5546V5.29211H7.55462V8.29211ZM6.5181 8.29211V5.29211H3.5181V8.29211H6.5181ZM6.5181 10.3651V13.3651H9.5181V10.3651H6.5181ZM4.44507 10.3651V7.36515H1.44507V10.3651H4.44507ZM4.44507 11.4017H1.44507V14.4017H4.44507V11.4017ZM6.5181 11.4017H9.5181V8.40166H6.5181V11.4017ZM6.5181 13.4747H3.5181V16.4747H6.5181V13.4747ZM7.55462 13.4747V16.4747H10.5546V13.4747H7.55462ZM7.55462 11.4017V8.40166H4.55462V11.4017H7.55462ZM9.62765 11.4017V14.4017H12.6276V11.4017H9.62765ZM9.62765 10.3651H12.6276V7.36515H9.62765V10.3651ZM10.5546 10.3651V8.29211H4.55462V10.3651H10.5546ZM7.55462 5.29211H6.5181V11.2921H7.55462V5.29211ZM3.5181 8.29211V10.3651H9.5181V8.29211H3.5181ZM6.5181 7.36515H4.44507V13.3651H6.5181V7.36515ZM1.44507 10.3651V11.4017H7.44507V10.3651H1.44507ZM4.44507 14.4017H6.5181V8.40166H4.44507V14.4017ZM3.5181 11.4017V13.4747H9.5181V11.4017H3.5181ZM6.5181 16.4747H7.55462V10.4747H6.5181V16.4747ZM10.5546 13.4747V11.4017H4.55462V13.4747H10.5546ZM7.55462 14.4017H9.62765V8.40166H7.55462V14.4017ZM12.6276 11.4017V10.3651H6.62765V11.4017H12.6276ZM9.62765 7.36515H7.55462V13.3651H9.62765V7.36515Z" fill="black" mask="url(#path-4-inside-1_2_468)"/>
</svg>
