<svg width="11" height="21" viewBox="0 0 11 21" fill="none" xmlns="http://www.w3.org/2000/svg">
<path fill-rule="evenodd" clip-rule="evenodd" d="M10.2878 0.883693C10.3542 0.954681 10.4069 1.03901 10.4428 1.13186C10.4788 1.2247 10.4973 1.32423 10.4973 1.42475C10.4973 1.52527 10.4788 1.6248 10.4428 1.71764C10.4069 1.81049 10.3542 1.89482 10.2878 1.96581L2.23155 10.5952L10.2878 19.2246C10.3541 19.2956 10.4067 19.38 10.4426 19.4728C10.4785 19.5657 10.4969 19.6652 10.4969 19.7656C10.4969 19.8661 10.4785 19.9656 10.4426 20.0585C10.4067 20.1513 10.3541 20.2356 10.2878 20.3067C10.2214 20.3778 10.1427 20.4341 10.056 20.4726C9.96939 20.511 9.87651 20.5308 9.78272 20.5308C9.68893 20.5308 9.59605 20.511 9.5094 20.4726C9.42275 20.4341 9.34401 20.3778 9.27769 20.3067L0.717889 11.1363C0.65146 11.0653 0.598757 10.9809 0.562796 10.8881C0.526836 10.7952 0.508326 10.6957 0.508326 10.5952C0.508326 10.4947 0.526836 10.3951 0.562796 10.3023C0.598757 10.2095 0.65146 10.1251 0.717889 10.0541L9.27769 0.883693C9.34396 0.812526 9.42267 0.756062 9.50933 0.717536C9.59599 0.679011 9.6889 0.65918 9.78272 0.65918C9.87655 0.65918 9.96945 0.679011 10.0561 0.717536C10.1428 0.756062 10.2215 0.812526 10.2878 0.883693Z" fill="black"/>
</svg>
