<svg width="4" height="15" viewBox="0 0 4 15" fill="none" xmlns="http://www.w3.org/2000/svg">
<path d="M1.03292 2.1231C1.03292 2.39011 1.34194 2.60656 1.72313 2.60656C2.10432 2.60656 2.41333 2.39011 2.41333 2.1231C2.41333 1.8561 2.10432 1.63965 1.72313 1.63965C1.34194 1.63965 1.03292 1.8561 1.03292 2.1231Z" fill="black" stroke="black" stroke-width="2"/>
<path d="M1.03292 7.68975C1.03292 7.95676 1.34194 8.17321 1.72313 8.17321C2.10432 8.17321 2.41333 7.95676 2.41333 7.68975C2.41333 7.42275 2.10432 7.2063 1.72313 7.2063C1.34194 7.2063 1.03292 7.42275 1.03292 7.68975Z" fill="black" stroke="black" stroke-width="2"/>
<path d="M1.03292 13.2559C1.03292 13.5229 1.34194 13.7394 1.72313 13.7394C2.10432 13.7394 2.41333 13.5229 2.41333 13.2559C2.41333 12.9889 2.10432 12.7725 1.72313 12.7725C1.34194 12.7725 1.03292 12.9889 1.03292 13.2559Z" fill="black" stroke="black" stroke-width="2"/>
</svg>
