<svg width="11" height="11" viewBox="0 0 11 11" fill="none" xmlns="http://www.w3.org/2000/svg">
<path fill-rule="evenodd" clip-rule="evenodd" d="M0.838379 0.453125H10.6702V10.7531H0.838379V0.453125ZM1.54065 1.1554H3.88155V3.4963H1.54065V1.1554ZM6.92472 1.1554V3.4963H4.81791V1.1554H6.92472ZM7.86108 3.4963H9.9679V1.1554H7.86108V3.4963ZM3.88155 4.43266H1.54065V6.77356H3.88155V4.43266ZM6.92472 6.77356V4.43266H4.81791V6.77356H6.92472ZM9.9679 6.77356H7.86108V4.43266H9.9679V6.77356ZM3.88155 7.70992H1.54065V10.0508H3.88155V7.70992ZM6.92472 7.70992H4.81791V10.0508H6.92472V7.70992ZM7.86108 10.0508V7.70992H9.9679V10.0508H7.86108Z" fill="black"/>
</svg>
