<svg width="11" height="11" viewBox="0 0 11 11" fill="none" xmlns="http://www.w3.org/2000/svg">
<path fill-rule="evenodd" clip-rule="evenodd" d="M0.423828 2.79354C0.423828 1.50069 1.47189 0.452637 2.76473 0.452637H8.38289C9.67574 0.452637 10.7238 1.50069 10.7238 2.79354V8.4117C10.7238 9.70455 9.67574 10.7526 8.38289 10.7526H2.76473C1.47189 10.7526 0.423828 9.70455 0.423828 8.4117V2.79354ZM4.60959 2.90601L3.4818 1.29536H5.71831L6.8461 2.90601H4.60959ZM7.87488 2.90601H9.88107V2.79354C9.88107 1.96612 9.21031 1.29536 8.38289 1.29536H6.74709L7.87488 2.90601ZM2.47292 1.32376L3.58082 2.90601H1.26655V2.79354C1.26655 2.06597 1.78518 1.45954 2.47292 1.32376ZM1.26655 3.74874V8.4117C1.26655 9.23912 1.93731 9.90988 2.76473 9.90988H8.38289C9.21031 9.90988 9.88107 9.23912 9.88107 8.4117V3.74874H1.26655Z" fill="#989898"/>
<path d="M6.26489 6.06623C6.93156 6.45113 6.93156 7.41338 6.26489 7.79828L5.8659 8.02863C5.19924 8.41353 4.3659 7.93241 4.3659 7.16261L4.3659 6.7019C4.3659 5.9321 5.19924 5.45097 5.8659 5.83587L6.26489 6.06623Z" fill="#989898"/>
</svg>
