<svg width="20" height="20" viewBox="0 0 20 20" fill="none" xmlns="http://www.w3.org/2000/svg">
<path d="M8.00753 15.0035C9.41272 15.0032 10.7774 14.508 11.8843 13.5968L15.3645 17.2602L16.4839 16.0818L13.0037 12.4185C13.8698 11.2532 14.3405 9.81636 14.3409 8.33683C14.3409 4.661 11.4996 1.67017 8.00753 1.67017C4.51549 1.67017 1.67419 4.661 1.67419 8.33683C1.67419 12.0127 4.51549 15.0035 8.00753 15.0035ZM8.00753 3.33683C10.6272 3.33683 12.7575 5.57933 12.7575 8.33683C12.7575 11.0943 10.6272 13.3368 8.00753 13.3368C5.3879 13.3368 3.25753 11.0943 3.25753 8.33683C3.25753 5.57933 5.3879 3.33683 8.00753 3.33683Z" fill="#8E8E8E"/>
</svg>
