<svg width="10" height="11" viewBox="0 0 10 11" fill="none" xmlns="http://www.w3.org/2000/svg">
<path d="M4.93911 6.17094C4.60957 6.17094 4.28744 6.07322 4.01344 5.89014C3.73944 5.70706 3.52589 5.44685 3.39978 5.14239C3.27367 4.83794 3.24068 4.50293 3.30496 4.17973C3.36925 3.85653 3.52794 3.55965 3.76096 3.32663C3.99397 3.09361 4.29085 2.93493 4.61406 2.87064C4.93726 2.80635 5.27227 2.83934 5.57672 2.96545C5.88117 3.09156 6.14139 3.30512 6.32447 3.57911C6.50755 3.85311 6.60527 4.17525 6.60527 4.50478C6.60527 4.94668 6.42973 5.37047 6.11726 5.68294C5.8048 5.9954 5.381 6.17094 4.93911 6.17094ZM4.93911 3.50509C4.74139 3.50509 4.54811 3.56372 4.38371 3.67357C4.21931 3.78341 4.09118 3.93955 4.01551 4.12222C3.93985 4.30489 3.92005 4.50589 3.95862 4.69981C3.9972 4.89374 4.09241 5.07186 4.23222 5.21167C4.37203 5.35148 4.55016 5.4467 4.74408 5.48527C4.938 5.52384 5.13901 5.50405 5.32168 5.42838C5.50435 5.35272 5.66048 5.22458 5.77033 5.06018C5.88017 4.89579 5.93881 4.7025 5.93881 4.50478C5.93881 4.23965 5.83348 3.98537 5.646 3.79789C5.45852 3.61041 5.20425 3.50509 4.93911 3.50509Z" fill="#989898"/>
<path d="M7.76084 9.30323C7.68098 9.30186 7.60469 9.25953 7.54821 9.18526C7.49174 9.11099 7.45955 9.01065 7.45851 8.90562C7.45851 7.87185 7.03122 7.18266 4.93911 7.18266C2.84701 7.18266 2.41972 7.87185 2.41972 8.90562C2.41972 9.01108 2.38787 9.11221 2.33117 9.18678C2.27447 9.26134 2.19757 9.30323 2.11739 9.30323C2.03721 9.30323 1.96031 9.26134 1.90361 9.18678C1.84692 9.11221 1.81506 9.01108 1.81506 8.90562C1.81506 6.38745 4.00391 6.38745 4.93911 6.38745C5.87431 6.38745 8.06316 6.38745 8.06316 8.90562C8.06212 9.01065 8.02993 9.11099 7.97346 9.18526C7.91699 9.25953 7.84069 9.30186 7.76084 9.30323Z" fill="#989898"/>
<path fill-rule="evenodd" clip-rule="evenodd" d="M9.15271 9.65096V2.33033C9.15271 2.20104 9.0479 2.09624 8.91862 2.09624H6.67255C6.17375 2.09624 5.7021 1.86904 5.39119 1.47898L5.33587 1.40959C5.24216 1.29202 5.06349 1.29202 4.96977 1.40959L4.91446 1.47898C4.60354 1.86904 4.1319 2.09624 3.63309 2.09624H0.959554C0.83027 2.09624 0.725464 2.20104 0.725464 2.33033V9.65096C0.725464 9.78025 0.83027 9.88505 0.959554 9.88505H8.91862C9.0479 9.88505 9.15271 9.78025 9.15271 9.65096ZM0.959554 1.39397C0.442416 1.39397 0.0231934 1.81319 0.0231934 2.33033V9.65096C0.0231934 10.1681 0.442416 10.5873 0.959554 10.5873H8.91862C9.43576 10.5873 9.85498 10.1681 9.85498 9.65096V2.33033C9.85498 1.81319 9.43576 1.39397 8.91862 1.39397H6.67255C6.38752 1.39397 6.11801 1.26414 5.94034 1.04125L5.88503 0.971856C5.51016 0.501569 4.79548 0.501569 4.42061 0.971857L4.3653 1.04125C4.18764 1.26414 3.91812 1.39397 3.63309 1.39397H0.959554Z" fill="#989898"/>
</svg>
