<svg width="21" height="24" viewBox="0 0 21 24" fill="none" xmlns="http://www.w3.org/2000/svg">
<path d="M17.8152 6.43461H15.6196C15.6196 3.36293 13.2045 0.949463 10.1307 0.949463C7.05696 0.949463 4.64184 3.36293 4.64184 6.43461H2.44629C1.23873 6.43461 0.250732 7.42194 0.250732 8.62867V21.793C0.250732 22.9998 1.23873 23.9871 2.44629 23.9871H17.8152C19.0227 23.9871 20.0107 22.9998 20.0107 21.793V8.62867C20.0107 7.42194 19.0227 6.43461 17.8152 6.43461ZM10.1307 3.14352C11.997 3.14352 13.4241 4.56966 13.4241 6.43461H6.8374C6.8374 4.56966 8.26451 3.14352 10.1307 3.14352ZM17.8152 21.793H2.44629V8.62867H17.8152V21.793ZM10.1307 13.0168C8.26451 13.0168 6.8374 11.5906 6.8374 9.7257H4.64184C4.64184 12.7974 7.05696 15.2108 10.1307 15.2108C13.2045 15.2108 15.6196 12.7974 15.6196 9.7257H13.4241C13.4241 11.5906 11.997 13.0168 10.1307 13.0168Z" fill="black"/>
</svg>
